<?xml version="1.0" standalone="no"?>
<!DOCTYPE svg PUBLIC "-//W3C//DTD SVG 20010904//EN"
 "http://www.w3.org/TR/2001/REC-SVG-20010904/DTD/svg10.dtd">
<svg version="1.0" xmlns="http://www.w3.org/2000/svg"
 width="1280.000000pt" height="732.000000pt" viewBox="0 0 1280.000000 732.000000"
 preserveAspectRatio="xMidYMid meet">
<metadata>
Created by potrace 1.15, written by Peter Selinger 2001-2017
</metadata>
<g transform="translate(0.000000,732.000000) scale(0.100000,-0.100000)"
fill="#000000" stroke="none">
<path d="M4374 7281 c-184 -88 -558 -409 -1194 -1020 -129 -124 -467 -451
-750 -726 -979 -952 -1692 -1625 -2005 -1894 -383 -329 -459 -451 -410 -660
31 -131 100 -223 206 -277 66 -33 117 -48 299 -89 176 -39 239 -65 284 -115
45 -50 55 -87 66 -255 5 -77 14 -160 20 -185 76 -324 331 -687 692 -983 166
-136 297 -223 511 -339 315 -170 579 -232 1152 -272 762 -53 888 -31 1221 220
281 211 484 451 650 768 92 176 144 305 249 616 50 151 109 308 129 348 69
137 143 194 251 195 171 1 212 -93 315 -715 52 -315 92 -493 137 -608 139
-353 582 -769 1093 -1025 248 -125 715 -249 980 -262 351 -16 702 141 991 444
301 315 499 688 710 1338 76 235 127 342 196 414 l52 54 81 -6 c108 -9 136 -1
185 48 132 131 293 529 911 2255 181 502 228 628 281 737 51 106 109 168 146
157 42 -12 78 -59 139 -178 73 -144 134 -211 235 -259 65 -30 74 -32 188 -32
103 0 128 3 178 23 72 29 169 117 205 186 24 45 27 61 26 141 -1 76 -7 106
-38 195 -62 177 -334 708 -601 1175 -223 390 -345 524 -465 513 -64 -6 -143
-60 -258 -175 -102 -103 -166 -193 -177 -250 -13 -73 -137 -367 -383 -914
-217 -480 -376 -853 -527 -1235 -150 -381 -257 -606 -319 -672 -74 -80 -92
-132 -106 -305 -11 -136 -25 -161 -91 -165 -38 -2 -84 13 -279 94 -621 255
-902 348 -1200 395 -122 20 -654 17 -870 -5 -442 -44 -750 -110 -930 -201
-224 -113 -468 -151 -898 -142 -425 9 -674 62 -891 190 -323 191 -734 268
-1341 254 -286 -7 -400 -17 -1020 -86 -239 -27 -436 -48 -437 -47 -4 3 1497
1469 1707 1667 346 328 542 495 699 598 164 107 215 116 433 81 340 -54 930
-87 1082 -61 155 27 245 88 299 203 116 244 -129 442 -768 622 -88 24 -268 75
-400 111 -132 37 -301 87 -376 111 -75 24 -147 44 -161 44 -13 0 -60 -17 -104
-39z m516 -360 c89 -30 316 -127 828 -354 210 -94 251 -114 202 -103 -14 3
-171 24 -350 46 -389 47 -698 92 -875 127 -110 21 -137 23 -178 14 -305 -69
-1028 -732 -2298 -2106 -626 -678 -861 -895 -1094 -1011 -127 -63 -209 -70
-268 -24 l-27 21 19 37 c57 112 243 308 610 645 512 470 919 854 1706 1613
709 683 858 819 1060 963 187 135 292 173 460 167 91 -3 127 -9 205 -35z
m7077 -413 c221 -371 497 -918 519 -1027 13 -62 -53 -122 -137 -125 -31 0 -46
6 -75 34 -82 78 -157 223 -230 446 -55 168 -96 255 -140 293 -53 47 -95 38
-166 -36 -119 -124 -262 -416 -711 -1453 -468 -1081 -652 -1449 -766 -1535
-55 -41 -138 -10 -155 57 -13 52 26 168 125 368 171 348 510 1074 879 1885
256 562 588 1195 672 1283 l33 33 30 -35 c17 -19 72 -104 122 -188z m-8207
-2853 c307 -33 465 -74 709 -184 279 -126 605 -181 1070 -181 416 0 743 40
1181 145 240 58 391 75 660 75 586 0 1265 -128 1724 -324 154 -66 255 -129
354 -220 136 -127 273 -178 522 -197 178 -13 209 -18 188 -30 -9 -5 -97 -24
-195 -41 -158 -29 -199 -32 -363 -32 -214 -1 -248 8 -379 97 -176 118 -507
233 -974 338 -398 88 -664 124 -927 123 -270 0 -388 -31 -484 -127 -75 -75
-117 -183 -148 -372 -20 -131 -17 -660 5 -815 30 -203 87 -402 154 -533 79
-156 229 -329 379 -435 200 -143 518 -272 809 -328 128 -25 373 -25 479 0 285
66 495 246 637 543 53 112 89 228 153 493 62 257 121 460 177 606 65 168 85
176 82 32 -8 -375 -235 -1099 -448 -1428 -90 -140 -245 -289 -360 -345 -93
-46 -190 -66 -365 -72 -208 -8 -376 14 -599 78 -391 113 -802 353 -986 576
-76 92 -125 192 -189 384 -74 222 -126 439 -186 779 -80 451 -121 583 -221
717 -97 130 -352 178 -588 109 -198 -57 -373 -211 -480 -423 -46 -93 -79 -199
-111 -362 -88 -438 -257 -762 -546 -1042 -251 -243 -543 -395 -862 -450 -119
-20 -412 -26 -590 -12 l-82 6 257 52 c142 29 301 67 353 84 314 105 604 309
802 567 241 313 408 820 368 1115 -23 173 -81 290 -205 415 -298 299 -785 427
-1574 411 -559 -11 -928 -87 -1314 -270 -193 -91 -226 -154 -206 -399 36 -468
145 -764 448 -1220 154 -232 201 -313 201 -348 0 -31 -37 -25 -106 16 -254
152 -577 687 -749 1239 -141 455 -148 471 -215 505 -50 26 -116 26 -255 0
-203 -37 -344 -21 -337 40 13 116 406 253 517 180 55 -36 119 -23 212 44 256
184 1104 385 1838 436 173 12 597 4 765 -15z m-205 -500 c410 -43 666 -118
773 -226 224 -226 153 -807 -155 -1277 -68 -104 -233 -274 -320 -329 -297
-191 -735 -234 -1123 -111 -365 116 -623 345 -818 725 -92 179 -181 430 -213
603 -18 98 -16 277 4 321 73 162 460 269 1127 313 117 8 592 -4 725 -19z
m3845 -266 c942 -71 1405 -155 1626 -295 80 -50 99 -99 98 -244 -2 -214 -58
-571 -130 -835 -107 -389 -219 -538 -454 -602 -91 -25 -390 -25 -549 0 -121
19 -312 77 -402 122 -297 149 -511 411 -608 746 -64 223 -81 397 -81 857 l0
293 53 -6 c28 -3 230 -19 447 -36z"/>
</g>
</svg>
